<svg width="118" height="118" viewBox="0 0 118 118" fill="none" xmlns="http://www.w3.org/2000/svg">
<path d="M58.9999 70.6665C57.5577 70.6665 56.1479 71.0942 54.9488 71.8954C53.7497 72.6966 52.8151 73.8354 52.2632 75.1678C51.7114 76.5002 51.567 77.9663 51.8483 79.3807C52.1297 80.7952 52.8241 82.0944 53.8439 83.1142C54.8636 84.1339 56.1629 84.8284 57.5773 85.1097C58.9918 85.3911 60.4579 85.2467 61.7903 84.6948C63.1226 84.1429 64.2614 83.2083 65.0627 82.0092C65.8639 80.8101 66.2915 79.4003 66.2915 77.9582C66.2915 76.0243 65.5233 74.1696 64.1559 72.8022C62.7884 71.4347 60.9337 70.6665 58.9999 70.6665ZM58.9999 61.9165C60.547 61.9165 62.0307 61.3019 63.1247 60.208C64.2186 59.114 64.8332 57.6303 64.8332 56.0832V38.5832C64.8332 37.0361 64.2186 35.5523 63.1247 34.4584C62.0307 33.3644 60.547 32.7498 58.9999 32.7498C57.4528 32.7498 55.969 33.3644 54.8751 34.4584C53.7811 35.5523 53.1665 37.0361 53.1665 38.5832V56.0832C53.1665 57.6303 53.7811 59.114 54.8751 60.208C55.969 61.3019 57.4528 61.9165 58.9999 61.9165ZM58.9999 0.666504C47.4626 0.666504 36.1845 4.08769 26.5916 10.4974C16.9987 16.9072 9.522 26.0176 5.10689 36.6766C0.691779 47.3357 -0.463416 59.0646 1.78739 70.3801C4.03819 81.6957 9.5939 92.0897 17.752 100.248C25.91 108.406 36.304 113.962 47.6196 116.212C58.9352 118.463 70.664 117.308 81.3231 112.893C91.9821 108.478 101.092 101.001 107.502 91.4081C113.912 81.8152 117.333 70.5371 117.333 58.9998C117.316 43.5342 111.165 28.7068 100.229 17.7709C89.2929 6.83504 74.4655 0.683704 58.9999 0.666504ZM58.9999 105.667C49.7701 105.667 40.7475 102.93 33.0732 97.8018C25.399 92.674 19.4176 85.3856 15.8855 76.8584C12.3534 68.3312 11.4292 58.9481 13.2299 49.8956C15.0305 40.8432 19.4751 32.528 26.0015 26.0015C32.528 19.4751 40.8432 15.0305 49.8957 13.2299C58.9481 11.4292 68.3312 12.3534 76.8584 15.8855C85.3857 19.4176 92.674 25.3989 97.8018 33.0732C102.93 40.7475 105.667 49.7701 105.667 58.9998C105.652 71.3723 100.731 83.2339 91.9825 91.9825C83.2339 100.731 71.3723 105.652 58.9999 105.667Z" fill="#E4E4E4"/>
</svg>
