<svg width="94" height="130" viewBox="0 0 94 130" fill="none" xmlns="http://www.w3.org/2000/svg">
<path d="M87.7852 117.511H81.9518V107.787C81.9336 104.449 81.3426 101.139 80.2044 98.0005C80.1406 97.8292 80.0737 97.6704 79.995 97.5073C79.0502 94.9314 77.7451 92.5025 76.1185 90.293L67.9524 79.401C65.6866 76.3669 64.4591 72.6832 64.4518 68.8965V63.0059C64.4652 58.368 66.3063 53.9223 69.5759 50.6329L73.4097 46.799C77.8642 42.3205 80.7256 36.5037 81.5549 30.2418C81.558 30.1607 81.6015 30.093 81.6015 30.0111L81.5851 29.931C81.7879 28.689 81.9105 27.4351 81.9519 26.1773V12.5114H87.7852C89.3323 12.5114 90.816 11.8968 91.91 10.8028C93.004 9.70889 93.6186 8.22516 93.6186 6.67806C93.6186 5.13096 93.004 3.64723 91.91 2.55327C90.816 1.45931 89.3323 0.844727 87.7852 0.844727H6.11855C4.57145 0.844727 3.08772 1.45931 1.99376 2.55327C0.899796 3.64723 0.285215 5.13096 0.285215 6.67806C0.285215 8.22516 0.899796 9.70889 1.99376 10.8028C3.08772 11.8968 4.57145 12.5114 6.11855 12.5114H11.9519V26.1773C11.9933 27.4351 12.1158 28.689 12.3186 29.931L12.3022 30.0114C12.3022 30.0931 12.3456 30.161 12.3488 30.2421C13.1781 36.504 16.0395 42.3207 20.4939 46.7993L24.3278 50.6332C27.5973 53.9225 29.4384 58.3681 29.4518 63.0059V68.8964C29.4442 72.6827 28.2178 76.3659 25.9541 79.4009L17.7823 90.2927C16.1562 92.5033 14.8514 94.9331 13.9068 97.5096C13.8292 97.6712 13.7626 97.8283 13.6996 97.9977C12.5613 101.137 11.9701 104.448 11.9518 107.787V117.511H6.11849C4.57139 117.511 3.08766 118.126 1.9937 119.22C0.899738 120.314 0.285156 121.798 0.285156 123.345C0.285156 124.892 0.899738 126.376 1.9937 127.47C3.08766 128.563 4.57139 129.178 6.11849 129.178H87.7852C89.3323 129.178 90.816 128.563 91.91 127.47C93.0039 126.376 93.6185 124.892 93.6185 123.345C93.6185 121.798 93.0039 120.314 91.91 119.22C90.816 118.126 89.3323 117.511 87.7852 117.511ZM23.6185 24.1781V12.5114H70.2852V24.1781H23.6185ZM28.7426 38.5506C27.9207 37.7249 27.1841 36.8183 26.5441 35.8447H67.3596C66.7195 36.8183 65.983 37.7249 65.161 38.5506L61.3272 42.3845C56.777 46.9079 53.8593 52.8154 53.033 59.1781H40.8705C40.0443 52.8153 37.1266 46.9075 32.5764 42.3839L28.7426 38.5506ZM35.288 86.3964C38.6633 81.8737 40.6647 76.4747 41.053 70.8447H52.8507C53.2386 76.4752 55.2412 81.8746 58.6185 86.3964L64.4525 94.1781H29.4497L35.288 86.3964ZM70.2852 117.511H23.6185V107.787C23.6347 107.137 23.6877 106.489 23.7773 105.845H70.1264C70.2159 106.489 70.2689 107.137 70.2852 107.787V117.511Z" fill="#E4E4E4"/>
</svg>
