<svg width="94" height="118" viewBox="0 0 94 118" fill="none" xmlns="http://www.w3.org/2000/svg">
<path d="M76.1668 41.5001V29.8334C76.1668 22.0979 73.0939 14.6793 67.6241 9.20947C62.1543 3.73966 54.7356 0.666748 47.0002 0.666748C39.2647 0.666748 31.846 3.73966 26.3762 9.20947C20.9064 14.6793 17.8335 22.0979 17.8335 29.8334V41.5001C13.1922 41.5001 8.74101 43.3438 5.45913 46.6257C2.17724 49.9076 0.333496 54.3588 0.333496 59.0001V99.8334C0.333496 104.475 2.17724 108.926 5.45913 112.208C8.74101 115.49 13.1922 117.333 17.8335 117.333H76.1668C80.8081 117.333 85.2593 115.49 88.5412 112.208C91.8231 108.926 93.6668 104.475 93.6668 99.8334V59.0001C93.6668 54.3588 91.8231 49.9076 88.5412 46.6257C85.2593 43.3438 80.8081 41.5001 76.1668 41.5001ZM29.5002 29.8334C29.5002 25.1921 31.3439 20.7409 34.6258 17.459C37.9077 14.1772 42.3589 12.3334 47.0002 12.3334C51.6414 12.3334 56.0926 14.1772 59.3745 17.459C62.6564 20.7409 64.5002 25.1921 64.5002 29.8334V41.5001H29.5002V29.8334ZM82.0002 99.8334C82.0002 101.381 81.3856 102.864 80.2916 103.958C79.1977 105.052 77.7139 105.667 76.1668 105.667H17.8335C16.2864 105.667 14.8027 105.052 13.7087 103.958C12.6147 102.864 12.0002 101.381 12.0002 99.8334V59.0001C12.0002 57.453 12.6147 55.9693 13.7087 54.8753C14.8027 53.7813 16.2864 53.1668 17.8335 53.1668H76.1668C77.7139 53.1668 79.1977 53.7813 80.2916 54.8753C81.3856 55.9693 82.0002 57.453 82.0002 59.0001V99.8334Z" fill="#E4E4E4"/>
</svg>
