<svg width="118" height="118" viewBox="0 0 118 118" fill="none" xmlns="http://www.w3.org/2000/svg">
<path d="M58.9999 0.666504C47.4626 0.666504 36.1845 4.08769 26.5916 10.4974C16.9987 16.9072 9.522 26.0176 5.10689 36.6766C0.691779 47.3357 -0.463416 59.0646 1.78739 70.3801C4.03819 81.6957 9.59391 92.0897 17.752 100.248C25.91 108.406 36.304 113.962 47.6196 116.212C58.9352 118.463 70.664 117.308 81.3231 112.893C91.9821 108.478 101.093 101.001 107.502 91.4081C113.912 81.8152 117.333 70.5371 117.333 58.9998C117.333 51.3394 115.824 43.754 112.893 36.6766C109.961 29.5993 105.665 23.1687 100.248 17.7519C94.831 12.3352 88.4004 8.03839 81.3231 5.10687C74.2457 2.17534 66.6603 0.666504 58.9999 0.666504ZM58.9999 105.667C46.6231 105.667 34.7532 100.75 26.0015 91.9982C17.2498 83.2465 12.3332 71.3766 12.3332 58.9998C12.3203 48.636 15.7925 38.5689 22.1915 30.4165L87.5832 95.8082C79.4309 102.207 69.3637 105.679 58.9999 105.667ZM95.8082 87.5832L30.4165 22.1915C38.5689 15.7924 48.636 12.3203 58.9999 12.3332C71.3766 12.3332 83.2465 17.2498 91.9982 26.0015C100.75 34.7532 105.667 46.6231 105.667 58.9998C105.679 69.3637 102.207 79.4308 95.8082 87.5832Z" fill="#E4E4E4"/>
</svg>
