<svg width="118" height="100" viewBox="0 0 118 100" fill="none" xmlns="http://www.w3.org/2000/svg">
<path d="M66.5832 51.2837C69.6957 48.5894 72.1922 45.2572 73.9033 41.513C75.6143 37.7688 76.4999 33.7003 76.4998 29.5837C76.4998 21.8482 73.4269 14.4295 67.9571 8.95971C62.4873 3.4899 55.0687 0.416992 47.3332 0.416992C39.5977 0.416992 32.179 3.4899 26.7092 8.95971C21.2394 14.4295 18.1665 21.8482 18.1665 29.5837C18.1665 33.7003 19.052 37.7688 20.7631 41.513C22.4741 45.2572 24.9706 48.5894 28.0832 51.2837C19.9173 54.9813 12.9892 60.9526 8.12722 68.4835C3.26523 76.0144 0.67509 84.7863 0.666504 93.7503C0.666504 95.2974 1.28109 96.7812 2.37505 97.8751C3.46901 98.9691 4.95274 99.5837 6.49984 99.5837C8.04693 99.5837 9.53067 98.9691 10.6246 97.8751C11.7186 96.7812 12.3332 95.2974 12.3332 93.7503C12.3332 84.4678 16.0207 75.5654 22.5844 69.0016C29.1482 62.4378 38.0506 58.7503 47.3332 58.7503C56.6157 58.7503 65.5181 62.4378 72.0819 69.0016C78.6457 75.5654 82.3332 84.4678 82.3332 93.7503C82.3332 95.2974 82.9477 96.7812 84.0417 97.8751C85.1357 98.9691 86.6194 99.5837 88.1665 99.5837C89.7136 99.5837 91.1973 98.9691 92.2913 97.8751C93.3853 96.7812 93.9998 95.2974 93.9998 93.7503C93.9913 84.7863 91.4011 76.0144 86.5391 68.4835C81.6771 60.9526 74.749 54.9813 66.5832 51.2837ZM47.3332 47.0837C43.872 47.0837 40.4886 46.0573 37.6107 44.1344C34.7328 42.2115 32.4898 39.4783 31.1653 36.2806C29.8407 33.0829 29.4942 29.5642 30.1694 26.1696C30.8447 22.7749 32.5114 19.6567 34.9588 17.2093C37.4062 14.7619 40.5244 13.0952 43.9191 12.4199C47.3138 11.7447 50.8324 12.0912 54.0301 13.4158C57.2278 14.7403 59.961 16.9833 61.8839 19.8612C63.8068 22.739 64.8332 26.1225 64.8332 29.5837C64.8332 34.2249 62.9894 38.6761 59.7075 41.958C56.4257 45.2399 51.9745 47.0837 47.3332 47.0837ZM110.975 50.0003L115.642 45.392C116.185 44.8481 116.617 44.2024 116.911 43.4918C117.206 42.7812 117.357 42.0195 117.357 41.2503C117.357 40.4811 117.206 39.7195 116.911 39.0089C116.617 38.2982 116.185 37.6525 115.642 37.1087C115.098 36.5648 114.452 36.1333 113.741 35.839C113.031 35.5446 112.269 35.3931 111.5 35.3931C110.731 35.3931 109.969 35.5446 109.258 35.839C108.548 36.1333 107.902 36.5648 107.358 37.1087L102.75 41.7753L98.1415 37.1087C97.5976 36.5648 96.9519 36.1333 96.2413 35.839C95.5307 35.5446 94.769 35.3931 93.9998 35.3931C92.4464 35.3931 90.9566 36.0102 89.8582 37.1087C89.3143 37.6525 88.8828 38.2982 88.5885 39.0089C88.2941 39.7195 88.1426 40.4811 88.1426 41.2503C88.1426 42.8038 88.7597 44.2936 89.8582 45.392L94.5248 50.0003L89.8582 54.6087C89.3114 55.1509 88.8774 55.7961 88.5813 56.507C88.2851 57.2178 88.1327 57.9803 88.1327 58.7503C88.1327 59.5204 88.2851 60.2828 88.5813 60.9937C88.8774 61.7045 89.3114 62.3497 89.8582 62.892C90.4005 63.4387 91.0456 63.8727 91.7565 64.1689C92.4673 64.465 93.2298 64.6175 93.9998 64.6175C94.7699 64.6175 95.5324 64.465 96.2432 64.1689C96.954 63.8727 97.5992 63.4387 98.1415 62.892L102.75 58.2253L107.358 62.892C107.9 63.4387 108.546 63.8727 109.256 64.1689C109.967 64.465 110.73 64.6175 111.5 64.6175C112.27 64.6175 113.032 64.465 113.743 64.1689C114.454 63.8727 115.099 63.4387 115.642 62.892C116.188 62.3497 116.622 61.7045 116.918 60.9937C117.215 60.2828 117.367 59.5204 117.367 58.7503C117.367 57.9803 117.215 57.2178 116.918 56.507C116.622 55.7961 116.188 55.1509 115.642 54.6087L110.975 50.0003Z" fill="#E4E4E4"/>
</svg>
