<svg width="118" height="118" viewBox="0 0 118 118" fill="none" xmlns="http://www.w3.org/2000/svg">
<path d="M74.8665 40.275L49.8415 65.3584L40.2165 55.7333C39.6936 55.1227 39.0501 54.6268 38.3264 54.2766C37.6026 53.9265 36.8144 53.7297 36.011 53.6987C35.2076 53.6677 34.4065 53.803 33.658 54.0963C32.9094 54.3896 32.2296 54.8344 31.6611 55.4029C31.0926 55.9714 30.6477 56.6512 30.3545 57.3998C30.0612 58.1484 29.9258 58.9495 29.9569 59.7528C29.9879 60.5562 30.1847 61.3445 30.5348 62.0682C30.8849 62.7919 31.3809 63.4354 31.9915 63.9584L45.6999 77.725C46.2449 78.2657 46.8914 78.6934 47.6021 78.9837C48.3128 79.274 49.0738 79.4211 49.8415 79.4167C51.3718 79.4102 52.8383 78.8027 53.9249 77.725L83.0915 48.5583C83.6383 48.0161 84.0723 47.3709 84.3684 46.66C84.6646 45.9492 84.817 45.1868 84.817 44.4167C84.817 43.6466 84.6646 42.8842 84.3684 42.1733C84.0723 41.4625 83.6383 40.8173 83.0915 40.275C81.9986 39.1886 80.5201 38.5787 78.979 38.5787C77.4379 38.5787 75.9595 39.1886 74.8665 40.275ZM58.9999 0.666687C47.4626 0.666687 36.1845 4.08788 26.5916 10.4976C16.9987 16.9074 9.522 26.0178 5.10689 36.6768C0.691779 47.3358 -0.463416 59.0647 1.78739 70.3803C4.03819 81.6958 9.5939 92.0899 17.752 100.248C25.91 108.406 36.304 113.962 47.6196 116.212C58.9352 118.463 70.664 117.308 81.3231 112.893C91.9821 108.478 101.092 101.001 107.502 91.4083C113.912 81.8154 117.333 70.5373 117.333 59C117.333 51.3396 115.824 43.7541 112.893 36.6768C109.961 29.5995 105.664 23.1689 100.248 17.7521C94.831 12.3354 88.4004 8.03857 81.3231 5.10705C74.2457 2.17552 66.6603 0.666687 58.9999 0.666687ZM58.9999 105.667C49.7701 105.667 40.7475 102.93 33.0732 97.8019C25.399 92.6741 19.4176 85.3858 15.8855 76.8586C12.3534 68.3314 11.4292 58.9482 13.2299 49.8958C15.0305 40.8434 19.4751 32.5282 26.0015 26.0017C32.528 19.4753 40.8432 15.0307 49.8956 13.23C58.9481 11.4294 68.3312 12.3536 76.8584 15.8856C85.3856 19.4177 92.674 25.3991 97.8018 33.0734C102.93 40.7477 105.667 49.7702 105.667 59C105.667 71.3768 100.75 83.2466 91.9982 91.9983C83.2465 100.75 71.3766 105.667 58.9999 105.667Z" fill="#E4E4E4"/>
</svg>
