<svg width="39" height="39" viewBox="0 0 39 39" fill="none" xmlns="http://www.w3.org/2000/svg">
<path d="M6.5625 27C6 26.0625 4.875 25.875 3.9375 26.25C3 26.8125 2.8125 27.9375 3.1875 28.875C3.75 29.8125 4.875 30 5.8125 29.625C6.75 29.0625 6.9375 27.9375 6.5625 27ZM5.8125 9.375C4.875 9 3.75 9.1875 3.1875 10.125C2.8125 11.0625 3 12.1875 3.9375 12.75C4.875 13.125 6 12.9375 6.5625 12C6.9375 11.0625 6.75 9.9375 5.8125 9.375ZM35.0625 12.75C36 12.1875 36.1875 11.0625 35.8125 10.125C35.25 9.1875 34.125 9 33.1875 9.375C32.25 9.9375 32.0625 11.0625 32.4375 12C33 12.9375 34.125 13.125 35.0625 12.75ZM4.5 19.5C4.5 18.375 3.75 17.625 2.625 17.625C1.5 17.625 0.75 18.375 0.75 19.5C0.75 20.625 1.5 21.375 2.625 21.375C3.75 21.375 4.5 20.625 4.5 19.5ZM10.5 32.25C9.5625 32.4375 8.8125 33.5625 9.1875 34.5C9.375 35.4375 10.5 36.1875 11.4375 35.8125C12.375 35.625 13.125 34.5 12.75 33.5625C12.5625 32.625 11.625 32.0625 10.5 32.25ZM36.375 17.625C35.25 17.625 34.5 18.375 34.5 19.5C34.5 20.625 35.25 21.375 36.375 21.375C37.5 21.375 38.25 20.625 38.25 19.5C38.25 18.375 37.5 17.625 36.375 17.625ZM35.0625 26.25C34.125 25.6875 33 26.0625 32.4375 27C31.875 27.9375 32.25 29.0625 33.1875 29.625C34.125 30.1875 35.25 29.8125 35.8125 28.875C36.1875 27.9375 36 26.8125 35.0625 26.25ZM28.875 3.1875C27.9375 2.625 26.8125 3 26.25 3.9375C25.6875 4.875 26.0625 6 27 6.5625C27.9375 7.125 29.0625 6.75 29.625 5.8125C30 4.875 29.8125 3.75 28.875 3.1875ZM28.5 32.25C27.5625 32.0625 26.4375 32.625 26.25 33.5625C26.0625 34.5 26.625 35.625 27.5625 35.8125C28.5 36 29.625 35.4375 29.8125 34.5C30 33.5625 29.4375 32.625 28.5 32.25ZM19.5 34.5C18.375 34.5 17.625 35.25 17.625 36.375C17.625 37.5 18.375 38.25 19.5 38.25C20.625 38.25 21.375 37.5 21.375 36.375C21.375 35.25 20.625 34.5 19.5 34.5ZM19.5 0.75C18.375 0.75 17.625 1.5 17.625 2.625C17.625 3.75 18.375 4.5 19.5 4.5C20.625 4.5 21.375 3.75 21.375 2.625C21.375 1.5 20.625 0.75 19.5 0.75Z" fill="#231815"/>
</svg>
