<svg width="31" height="25" viewBox="0 0 31 25" fill="none" xmlns="http://www.w3.org/2000/svg">
<path d="M28.6248 10.3125H27.1665V8.85413C27.1665 8.46735 27.0129 8.09642 26.7394 7.82293C26.4659 7.54944 26.0949 7.39579 25.7082 7.39579C25.3214 7.39579 24.9505 7.54944 24.677 7.82293C24.4035 8.09642 24.2498 8.46735 24.2498 8.85413V10.3125H22.7915C22.4047 10.3125 22.0338 10.4661 21.7603 10.7396C21.4868 11.0131 21.3332 11.384 21.3332 11.7708C21.3332 12.1576 21.4868 12.5285 21.7603 12.802C22.0338 13.0755 22.4047 13.2291 22.7915 13.2291H24.2498V14.6875C24.2498 15.0742 24.4035 15.4452 24.677 15.7187C24.9505 15.9921 25.3214 16.1458 25.7082 16.1458C26.0949 16.1458 26.4659 15.9921 26.7394 15.7187C27.0129 15.4452 27.1665 15.0742 27.1665 14.6875V13.2291H28.6248C29.0116 13.2291 29.3825 13.0755 29.656 12.802C29.9295 12.5285 30.0832 12.1576 30.0832 11.7708C30.0832 11.384 29.9295 11.0131 29.656 10.7396C29.3825 10.4661 29.0116 10.3125 28.6248 10.3125ZM17.3957 12.8208C18.1738 12.1472 18.7979 11.3142 19.2257 10.3781C19.6535 9.44207 19.8749 8.42495 19.8748 7.39579C19.8748 5.46192 19.1066 3.60726 17.7392 2.23981C16.3717 0.872353 14.517 0.104126 12.5832 0.104126C10.6493 0.104126 8.79464 0.872353 7.42718 2.23981C6.05973 3.60726 5.2915 5.46192 5.2915 7.39579C5.29149 8.42495 5.51288 9.44207 5.94065 10.3781C6.36841 11.3142 6.99254 12.1472 7.77067 12.8208C5.72921 13.7452 3.99718 15.238 2.78168 17.1208C1.56618 19.0035 0.91865 21.1965 0.916504 23.4375C0.916504 23.8242 1.07015 24.1952 1.34364 24.4687C1.61713 24.7421 1.98806 24.8958 2.37484 24.8958C2.76161 24.8958 3.13254 24.7421 3.40603 24.4687C3.67953 24.1952 3.83317 23.8242 3.83317 23.4375C3.83317 21.1168 4.75504 18.8912 6.39599 17.2503C8.03693 15.6093 10.2625 14.6875 12.5832 14.6875C14.9038 14.6875 17.1294 15.6093 18.7704 17.2503C20.4113 18.8912 21.3332 21.1168 21.3332 23.4375C21.3332 23.8242 21.4868 24.1952 21.7603 24.4687C22.0338 24.7421 22.4047 24.8958 22.7915 24.8958C23.1783 24.8958 23.5492 24.7421 23.8227 24.4687C24.0962 24.1952 24.2498 23.8242 24.2498 23.4375C24.2477 21.1965 23.6002 19.0035 22.3847 17.1208C21.1692 15.238 19.4371 13.7452 17.3957 12.8208ZM12.5832 11.7708C11.7179 11.7708 10.872 11.5142 10.1526 11.0335C9.43309 10.5527 8.87233 9.86946 8.5412 9.07003C8.21007 8.27061 8.12343 7.39094 8.29224 6.54227C8.46105 5.69361 8.87772 4.91406 9.48958 4.3022C10.1014 3.69035 10.881 3.27367 11.7297 3.10486C12.5783 2.93605 13.458 3.02269 14.2574 3.35382C15.0568 3.68495 15.7401 4.24571 16.2209 4.96517C16.7016 5.68464 16.9582 6.5305 16.9582 7.39579C16.9582 8.55612 16.4972 9.66891 15.6768 10.4894C14.8563 11.3099 13.7435 11.7708 12.5832 11.7708Z" fill="#B5B5B6"/>
</svg>
