<svg width="31" height="31" viewBox="0 0 31 31" fill="none" xmlns="http://www.w3.org/2000/svg">
<path d="M28.6251 4.43144L29.6605 3.41061C29.9351 3.136 30.0894 2.76355 30.0894 2.37519C30.0894 1.98683 29.9351 1.61438 29.6605 1.33977C29.3859 1.06516 29.0134 0.910889 28.6251 0.910889C28.2367 0.910889 27.8643 1.06516 27.5897 1.33977L25.548 3.39602L21.4209 7.52311L12.2188 16.7106C10.711 15.7158 8.88751 15.3161 7.10178 15.589C5.31605 15.8619 3.69519 16.7879 2.55327 18.1877C1.41135 19.5874 0.829667 21.3612 0.920941 23.1654C1.01222 24.9696 1.76995 26.6756 3.04731 27.953C4.32467 29.2303 6.03072 29.9881 7.83487 30.0793C9.63902 30.1706 11.4128 29.5889 12.8126 28.447C14.2123 27.3051 15.1384 25.6842 15.4113 23.8985C15.6842 22.1128 15.2845 20.2893 14.2897 18.7814L22.4417 10.6148L25.5334 13.721C25.6694 13.856 25.8306 13.9629 26.0079 14.0357C26.1852 14.1084 26.3751 14.1454 26.5667 14.1447C26.7583 14.1441 26.9479 14.1057 27.1247 14.0317C27.3015 13.9578 27.4619 13.8497 27.597 13.7137C27.732 13.5778 27.8389 13.4165 27.9116 13.2392C27.9843 13.0619 28.0214 12.8721 28.0207 12.6804C28.02 12.4888 27.9816 12.2992 27.9076 12.1225C27.8337 11.9457 27.7256 11.7852 27.5897 11.6502L24.498 8.55852L26.5688 6.50227L27.5897 7.52311C27.7247 7.65908 27.8852 7.76713 28.0619 7.84108C28.2387 7.91504 28.4283 7.95345 28.6199 7.95412C28.8115 7.9548 29.0014 7.91773 29.1787 7.84503C29.356 7.77232 29.5172 7.66541 29.6532 7.5304C29.7892 7.39538 29.8972 7.23491 29.9712 7.05813C30.0451 6.88136 30.0835 6.69175 30.0842 6.50014C30.0849 6.30852 30.0478 6.11864 29.9751 5.94135C29.9024 5.76406 29.7955 5.60283 29.6605 5.46686L28.6251 4.43144ZM8.20841 27.1669C7.34312 27.1669 6.49726 26.9103 5.77779 26.4295C5.05833 25.9488 4.49757 25.2655 4.16644 24.4661C3.83531 23.6667 3.74867 22.787 3.91748 21.9383C4.08629 21.0897 4.50297 20.3101 5.11482 19.6983C5.72668 19.0864 6.50623 18.6697 7.35489 18.5009C8.20356 18.3321 9.08323 18.4187 9.88265 18.7499C10.6821 19.081 11.3654 19.6418 11.8461 20.3612C12.3268 21.0807 12.5834 21.9266 12.5834 22.7919C12.5834 23.9522 12.1225 25.065 11.302 25.8854C10.4815 26.7059 9.36874 27.1669 8.20841 27.1669Z" fill="#B5B5B6"/>
</svg>
