<svg width="31" height="25" viewBox="0 0 31 25" fill="none" xmlns="http://www.w3.org/2000/svg">
<path d="M17.3957 12.8209C18.1738 12.1474 18.7979 11.3143 19.2257 10.3782C19.6535 9.44219 19.8749 8.42507 19.8748 7.39592C19.8748 5.46204 19.1066 3.60738 17.7392 2.23993C16.3717 0.872475 14.517 0.104248 12.5832 0.104248C10.6493 0.104248 8.79464 0.872475 7.42718 2.23993C6.05973 3.60738 5.2915 5.46204 5.2915 7.39592C5.29149 8.42507 5.51288 9.44219 5.94065 10.3782C6.36841 11.3143 6.99254 12.1474 7.77067 12.8209C5.72921 13.7453 3.99718 15.2381 2.78168 17.1209C1.56618 19.0036 0.91865 21.1966 0.916504 23.4376C0.916504 23.8244 1.07015 24.1953 1.34364 24.4688C1.61713 24.7423 1.98806 24.8959 2.37484 24.8959C2.76161 24.8959 3.13254 24.7423 3.40603 24.4688C3.67953 24.1953 3.83317 23.8244 3.83317 23.4376C3.83317 21.1169 4.75504 18.8913 6.39599 17.2504C8.03693 15.6095 10.2625 14.6876 12.5832 14.6876C14.9038 14.6876 17.1294 15.6095 18.7704 17.2504C20.4113 18.8913 21.3332 21.1169 21.3332 23.4376C21.3332 23.8244 21.4868 24.1953 21.7603 24.4688C22.0338 24.7423 22.4047 24.8959 22.7915 24.8959C23.1783 24.8959 23.5492 24.7423 23.8227 24.4688C24.0962 24.1953 24.2498 23.8244 24.2498 23.4376C24.2477 21.1966 23.6002 19.0036 22.3847 17.1209C21.1692 15.2381 19.4371 13.7453 17.3957 12.8209ZM12.5832 11.7709C11.7179 11.7709 10.872 11.5143 10.1526 11.0336C9.43309 10.5529 8.87233 9.86958 8.5412 9.07016C8.21007 8.27073 8.12343 7.39106 8.29224 6.54239C8.46105 5.69373 8.87772 4.91418 9.48958 4.30232C10.1014 3.69047 10.881 3.27379 11.7297 3.10498C12.5783 2.93617 13.458 3.02281 14.2574 3.35394C15.0568 3.68508 15.7401 4.24583 16.2209 4.96529C16.7016 5.68476 16.9582 6.53062 16.9582 7.39592C16.9582 8.55624 16.4972 9.66904 15.6768 10.4895C14.8563 11.31 13.7435 11.7709 12.5832 11.7709ZM29.6603 8.31466C29.5247 8.17798 29.3634 8.06949 29.1857 7.99545C29.008 7.92141 28.8174 7.88329 28.6248 7.88329C28.4323 7.88329 28.2417 7.92141 28.064 7.99545C27.8863 8.06949 27.725 8.17798 27.5894 8.31466L24.6728 11.2313L23.7686 10.3126C23.633 10.1759 23.4717 10.0674 23.294 9.99337C23.1163 9.91933 22.9257 9.88121 22.7332 9.88121C22.5407 9.88121 22.35 9.91933 22.1723 9.99337C21.9946 10.0674 21.8333 10.1759 21.6978 10.3126C21.4261 10.5858 21.2737 10.9554 21.2737 11.3407C21.2737 11.726 21.4261 12.0956 21.6978 12.3688L23.6519 14.323C23.9252 14.5946 24.2948 14.7471 24.68 14.7471C25.0653 14.7471 25.4349 14.5946 25.7082 14.323L29.6019 10.4292C29.7492 10.297 29.8679 10.1362 29.951 9.95657C30.0341 9.77696 30.0798 9.58231 30.0852 9.38449C30.0907 9.18666 30.0558 8.98979 29.9828 8.80587C29.9097 8.62195 29.8 8.45482 29.6603 8.31466Z" fill="#B5B5B6"/>
</svg>
