<svg width="1300" height="1031" viewBox="0 0 1300 1031" fill="none" xmlns="http://www.w3.org/2000/svg">
<path opacity="0.03" d="M1373.54 758.324C1322.08 696.159 1238.61 629.772 1141.32 575.13C1009.46 500.581 862.787 455.782 711.657 443.895C710.811 443.832 709.963 443.975 709.185 444.311C708.406 444.647 707.721 445.165 707.187 445.822C706.654 446.48 706.288 447.256 706.121 448.085C705.954 448.913 705.99 449.77 706.228 450.582C712.146 471.419 716.571 492.648 719.47 514.11C719.616 515.226 720.128 516.262 720.927 517.058C721.725 517.853 722.765 518.364 723.884 518.509C857.939 531.839 987.72 572.943 1104.9 639.186C1161.51 670.627 1214.61 707.952 1263.32 750.537C1264.03 751.215 1264.57 752.055 1264.88 752.985C1265.18 753.914 1265.26 754.905 1265.1 755.871C1264.94 756.837 1264.55 757.75 1263.95 758.53C1263.36 759.31 1262.58 759.934 1261.69 760.348L709.759 1025.85C709.037 1026.22 708.246 1026.42 707.437 1026.46C706.629 1026.49 705.823 1026.35 705.074 1026.04C704.325 1025.74 703.65 1025.28 703.095 1024.69C702.54 1024.11 702.118 1023.41 701.858 1022.64C677.759 951.163 644.116 883.242 601.836 820.708C601.836 820.708 634.941 732.719 652.421 659.644C666.546 600.603 672.063 495.236 613.445 387.186C564.096 296.249 458.953 191.762 301.284 103.201C204.175 48.6915 104.197 11.956 24.2585 0.209428C21.0588 -0.24214 17.798 0.0387523 14.7234 1.0307C11.6489 2.02265 8.84147 3.69963 6.51424 5.93437C4.187 8.16911 2.40107 10.9029 1.29206 13.9282C0.183044 16.9535 -0.219937 20.1909 0.113686 23.3946L72.195 777.989C72.4804 781.221 73.5496 784.335 75.3104 787.063C77.0713 789.792 79.4711 792.053 82.3032 793.651C86.7152 796.131 91.9148 796.824 96.8254 795.587C193.934 771.786 274.005 755.596 401.041 765.891L524.149 613.714C524.769 612.957 525.166 612.043 525.296 611.074C529.736 578.531 527.62 545.432 519.073 513.714C518.92 513.19 518.626 512.718 518.224 512.348C517.821 511.979 517.325 511.726 516.789 511.617C516.252 511.508 515.696 511.548 515.181 511.731C514.665 511.915 514.21 512.235 513.864 512.658L369.878 690.616C294.308 686.988 218.592 693.499 144.762 709.974C143.971 710.146 143.152 710.147 142.36 709.979C141.569 709.81 140.822 709.476 140.17 708.997C139.519 708.518 138.977 707.906 138.581 707.202C138.186 706.498 137.945 705.718 137.876 704.914L79.8754 96.6015C79.7694 95.6265 79.9038 94.6403 80.2668 93.7287C80.6298 92.8171 81.2105 92.0076 81.9586 91.3703C82.7066 90.7331 83.5994 90.2875 84.5594 90.0721C85.5195 89.8567 86.5177 89.8781 87.4676 90.1343C149.218 109.561 208.716 135.488 264.956 167.477C414.239 251.33 510.818 347.327 555.312 434.92C612.43 547.414 584.445 644.51 567.318 698.887C547.455 762.723 520.971 833.291 520.971 833.291C595.568 936.238 623.112 1012.83 653.039 1108.04C653.894 1110.78 655.337 1113.31 657.27 1115.45C659.203 1117.58 661.578 1119.27 664.232 1120.4C666.885 1121.53 669.753 1122.08 672.638 1121.99C675.522 1121.91 678.353 1121.2 680.936 1119.92L1365.82 790.396C1368.69 789.05 1371.23 787.076 1373.24 784.62C1375.25 782.164 1376.67 779.29 1377.41 776.21C1378.16 773.13 1378.19 769.924 1377.52 766.827C1376.85 763.731 1375.49 760.825 1373.54 758.324Z" fill="url(#paint0_linear)"/>
<defs>
<linearGradient id="paint0_linear" x1="0.113685" y1="561.052" x2="1378.09" y2="561.052" gradientUnits="userSpaceOnUse">
<stop stop-color="#EE7501"/>
<stop offset="1" stop-color="#E1002A"/>
</linearGradient>
</defs>
</svg>
